<svg width="81" height="37" viewBox="0 0 81 37" fill="none" xmlns="http://www.w3.org/2000/svg">
<g clip-path="url(#clip0_66_8)">
<path d="M15.7 16H12.34L12.08 9.72C12.04 8.48 11.9933 7.54 11.94 6.9H11.88C11.72 7.40667 11.5333 8.19333 11.32 9.26L11.22 9.76L9.84 16H6.48L5.32 10.38L5.12 9.38C4.84 8.14 4.64667 7.31333 4.54 6.9H4.48C4.42667 7.56667 4.38 8.65333 4.34 10.16C4.32667 10.2533 4.32 10.4 4.32 10.6L4.14 16H0.76L1.24 4.6H6.96L7.94 9.52L8.18 10.84C8.28667 10.4267 8.38667 9.96667 8.48 9.46L9.4 4.6H15.24L15.7 16ZM24.0648 13.5H20.7448L20.1448 16H16.4648L20.1448 4.6H24.8448L28.3648 16H24.6648L24.0648 13.5ZM22.3848 7.06L21.2048 11.28H23.5848L22.4648 7.06H22.3848ZM33.3594 4.6C34.9194 4.6 36.1927 4.74667 37.1794 5.04C38.1794 5.33333 38.9527 5.88667 39.4994 6.7C40.0594 7.51333 40.3394 8.68 40.3394 10.2C40.3394 11.8267 40.046 13.0667 39.4594 13.92C38.8727 14.76 38.086 15.32 37.0994 15.6C36.1127 15.8667 34.866 16 33.3594 16H29.3594V4.6H33.3594ZM36.0394 13.28C36.1994 13.12 36.3127 12.7067 36.3794 12.04C36.446 11.3733 36.4794 10.76 36.4794 10.2C36.4794 9.49333 36.426 8.93333 36.3194 8.52C36.226 8.09333 36.0527 7.75333 35.7994 7.5C35.3994 7.06 34.7127 6.84 33.7394 6.84C33.566 6.84 33.306 6.85333 32.9594 6.88V13.52C33.186 13.5467 33.5394 13.56 34.0194 13.56C34.5127 13.56 34.946 13.54 35.3194 13.5C35.706 13.4467 35.946 13.3733 36.0394 13.28ZM41.8375 4.6H50.1375V7H45.4375V9.08H49.3975V11.24H45.4375V13.56H50.1175V16H41.8375V4.6ZM54.6919 4.6H58.2919V16H54.6919V4.6ZM63.6564 11.4V16H60.3164V4.6H63.6964L66.7164 9.2C67.1697 9.88 67.5164 10.4533 67.7564 10.92H67.8164V9V4.6H71.1364V16H67.7364L64.6364 11.2L63.7364 9.84H63.6764L63.6564 11.4Z" fill="white"/>
<path d="M11.66 18.6V24.98C11.66 26.3 11.5133 27.3333 11.22 28.08C10.94 28.8133 10.4067 29.3533 9.62 29.7C8.83333 30.0467 7.68667 30.22 6.18 30.22C5.07333 30.22 4.14 30.1067 3.38 29.88C2.62 29.64 2.01333 29.1933 1.56 28.54C1.12 27.8867 0.9 26.9667 0.9 25.78V18.6H4.5V25.02C4.5 25.7267 4.53333 26.2667 4.6 26.64C4.68 27 4.85333 27.28 5.12 27.48C5.38667 27.6667 5.79333 27.76 6.34 27.76C6.67333 27.76 6.98667 27.7267 7.28 27.66C7.57333 27.5933 7.77333 27.4933 7.88 27.36C8 27.2 8.06 26.62 8.06 25.62V18.6H11.66Z" fill="#EF3340"/>
<path d="M19.9633 27.5H16.6433L16.0433 30H12.3633L16.0433 18.6H20.7433L24.2633 30H20.5633L19.9633 27.5ZM18.2833 21.06L17.1033 25.28H19.4833L18.3633 21.06H18.2833Z" fill="#009739"/>
<path d="M25.1578 18.6H33.4578V21H28.7578V23.08H32.7178V25.24H28.7578V27.56H33.4378V30H25.1578V18.6Z" fill="white"/>
</g>
<defs>
<clipPath id="clip0_66_8">
<rect width="81" height="37" fill="white"/>
</clipPath>
</defs>
</svg>
